<svg id="visual" viewBox="0 0 900 600" width="900" height="600" xmlns="http://www.w3.org/2000/svg" xmlns:xlink="http://www.w3.org/1999/xlink" version="1.1"><rect x="0" y="0" width="900" height="600" fill="#bda7a7"></rect><path d="M685 600L667.2 585.7C649.3 571.3 613.7 542.7 623.8 514.2C634 485.7 690 457.3 717.3 428.8C744.7 400.3 743.3 371.7 713.2 343C683 314.3 624 285.7 621.5 257C619 228.3 673 199.7 700.7 171.2C728.3 142.7 729.7 114.3 732 85.8C734.3 57.3 737.7 28.7 739.3 14.3L741 0L900 0L900 14.3C900 28.7 900 57.3 900 85.8C900 114.3 900 142.7 900 171.2C900 199.7 900 228.3 900 257C900 285.7 900 314.3 900 343C900 371.7 900 400.3 900 428.8C900 457.3 900 485.7 900 514.2C900 542.7 900 571.3 900 585.7L900 600Z" fill="#d16f6f" stroke-linecap="round" stroke-linejoin="miter"></path></svg>