<svg id="visual" viewBox="0 0 900 600" width="900" height="600" xmlns="http://www.w3.org/2000/svg" xmlns:xlink="http://www.w3.org/1999/xlink" version="1.1"><rect x="0" y="0" width="900" height="600" fill="#bea9a9"></rect><path d="M732 600L738 593.3C744 586.7 756 573.3 749.2 560C742.3 546.7 716.7 533.3 702 520C687.3 506.7 683.7 493.3 678.2 480C672.7 466.7 665.3 453.3 673 440C680.7 426.7 703.3 413.3 717 400C730.7 386.7 735.3 373.3 731.5 360C727.7 346.7 715.3 333.3 712.5 320C709.7 306.7 716.3 293.3 708.2 280C700 266.7 677 253.3 682.2 240C687.3 226.7 720.7 213.3 725.2 200C729.7 186.7 705.3 173.3 692.8 160C680.3 146.7 679.7 133.3 694.2 120C708.7 106.7 738.3 93.3 736.3 80C734.3 66.7 700.7 53.3 681.5 40C662.3 26.7 657.7 13.3 655.3 6.7L653 0L900 0L900 6.7C900 13.3 900 26.7 900 40C900 53.3 900 66.7 900 80C900 93.3 900 106.7 900 120C900 133.3 900 146.7 900 160C900 173.3 900 186.7 900 200C900 213.3 900 226.7 900 240C900 253.3 900 266.7 900 280C900 293.3 900 306.7 900 320C900 333.3 900 346.7 900 360C900 373.3 900 386.7 900 400C900 413.3 900 426.7 900 440C900 453.3 900 466.7 900 480C900 493.3 900 506.7 900 520C900 533.3 900 546.7 900 560C900 573.3 900 586.7 900 593.3L900 600Z" fill="#e88c2f" stroke-linecap="round" stroke-linejoin="miter"></path></svg>